<svg xmlns="http://www.w3.org/2000/svg" width="150" height="150" viewBox="0 0 235.852 284.224"><g transform="translate(-5.5 -23.904)"><g transform="translate(7.323 23.961)"><g transform="translate(0 0)"><path d="M0,145.3V48.425L83.915,0l22.106,12.761,0,0,13.151,7.594,48.632,28.072v38.75l0,58.125-5.425,3.132h0l-78.467,45.3ZM8.809,53.512v86.725L83.915,183.6l37.107-21.423h0l19.738-11.4h0L158.3,140.656l.724-.419V53.512L153,50.037h0L83.915,10.151Z" transform="translate(42.135 0)" fill="rgba(252,253,255,0.29)" stroke="#707070" stroke-width="0.1"/><path d="M642.939,790.022q-2.845-15.883-9.748-27.29a56.715,56.715,0,0,0-15.12-16.585q-4.69-3.258-7.949-5.856t-5.358-4.375l-14.95-11.268a6.42,6.42,0,0,1-2-2.179q-1.2-1.981.874-5.27.788-1.492,2.412-5.525,10.251-21.1,3.067-40.8a49.952,49.952,0,0,0-2.353-5.01,16.453,16.453,0,0,0-5.938-5.527c-7.6-3.988-16.641.859-18.727,1.973a28.313,28.313,0,0,0-4.293,2.863,35.546,35.546,0,0,0-7.232,8.038,40.871,40.871,0,0,0-4.263,7.241,38.9,38.9,0,0,0-3.045,10.9Q547,701.468,551,709.2a43.709,43.709,0,0,0,2.753,5.107q3.756,6.2,13.731,17.087l3.812,4.023q-6.706,12.919-12.878,23.476a189.527,189.527,0,0,1-16.505,23.855,46.08,46.08,0,0,1-6.578,6.318q-3.741,2.968-6.06,2.966a2.508,2.508,0,0,1-1.5-.429,3.3,3.3,0,0,1-1.08-2.4c-1.013-11.28,5.931-30.693,5.931-30.693s6.625-18.05,5.674-35.074a10.406,10.406,0,0,0-2.391-6.719c-3.28-3.53-8.967-2.988-10.269-2.863-8.725.832-15.219,8.408-17.772,11.387-.669.78-2,2.169-4,4.643a52.688,52.688,0,0,1-5.545,5.931,70.169,70.169,0,0,1-1.032-7.738q-1.806-11.346-12.637-11.347a4.292,4.292,0,0,0-1.61.347c-5.974,1.837-62.91,7.555-70.346,11.024-.656.306-3.262,1.5-3.262,3.049q0,1.745,2.9,1.742l2.537-.429q35.552-9.268,65.609-11.435c-.566,1.912-1.373,4.877-2.089,8.58-.684,3.541-.783,5.151-1.472,8.92-.451,2.468-.877,4.758-2.064,9.156q-2.576,9.544-3.869,16.377a71.8,71.8,0,0,0-1.288,13.281c0,1.894.347,3.139,1.031,3.74s2.321,1.073,4.9,1.419l6.448.773c2.293.429,5.48.625,7.866-1.16,4.126-3.086,2.1-9.276,4.255-19.854,1.374-6.736,3.615-11.483,6.19-16.634q3.348-6.7,11.605-18.053a56.2,56.2,0,0,1,4.641-5.159,29.657,29.657,0,0,1,4.9-4.126,2.846,2.846,0,0,1,2.191-.516,1.192,1.192,0,0,1,.9,1.288v.516a73.014,73.014,0,0,1-3.354,9.284q-4.127,10.839-7.866,23.082a172.466,172.466,0,0,0-5.291,21.527,53.414,53.414,0,0,0-.774,8.768q0,7.736,4.126,12.638a12.937,12.937,0,0,0,10.316,4.9q6.439,0,13.154-5.674,11.605-9.285,22.952-27.467a320.835,320.835,0,0,0,15.951-28.578l.024-.024.859.99,3.581,4.11q9.229,9.659,15.776,17.377a128.225,128.225,0,0,1,11.79,16.4,107.434,107.434,0,0,1,12.329,28.77,57.236,57.236,0,0,1,1.139,23.695q-1.32,6.213-3.051,7.266-1.237.751-4.768.516a23.847,23.847,0,0,1-8.985-2.421c-5.6-2.814-8.6-7.313-10.493-10.173a40.061,40.061,0,0,1-6.283-17.646,24.614,24.614,0,0,1-.168-5.879c.039-.422.1-1.05.24-1.84.458-2.522.929-5.118,2.79-6.6,2.211-1.758,5.3-1.089,6.224-.89a11.448,11.448,0,0,1,5.7,3.541,14.675,14.675,0,0,1,2.228,2.839q4.652,7.685,1.874,21.557,8.625-5.9,7.141-16.177a27.95,27.95,0,0,0-3.066-8.981,16.015,16.015,0,0,0-5.238-5.295,14.183,14.183,0,0,0-8.755-2.551,13.4,13.4,0,0,0-7.534,3.1,15.854,15.854,0,0,0-4.625,6.868,25.382,25.382,0,0,0-1.664,12.354,64.087,64.087,0,0,0,.563,6.546,50.054,50.054,0,0,0,1.432,7.159c.147.523.619,2.169,1.432,4.293a52.038,52.038,0,0,0,3.582,7.557c3.245,5.473,9.346,10.946,15.753,13.154q4.279,1.473,7-.177a7.616,7.616,0,0,0,1.833-1.449,50.585,50.585,0,0,1,5.6-4.741,147.379,147.379,0,0,0,10.989-10.38Q646.047,810.824,642.939,790.022Zm-60.307-72.205c-.5.3-1.158.142-1.99-.488q-6.478-4.539-10.166-7.56a29.835,29.835,0,0,1-6.54-7.727,32.586,32.586,0,0,1-4.273-12.653,25.249,25.249,0,0,1,2.331-13.773,23.143,23.143,0,0,1,9.1-10.42,10.975,10.975,0,0,1,6.19-1.772,9.36,9.36,0,0,1,2.077.322c4.3,1.18,6.654,5.157,7.834,7.148a24.243,24.243,0,0,1,1.432,2.863,27.239,27.239,0,0,1,1.433,4.293,37.814,37.814,0,0,1,1.432,8.585c.025.515.031,1.544.034,2.569,0,0,0,1.758-.034,3.157a52.785,52.785,0,0,1-3.476,14.794c-2.429,6.455-2.729,5.741-4,8.462a5.922,5.922,0,0,1-1.382,2.2Z" transform="translate(-409.44 -649.794)" fill="rgba(252,253,255,0.29)" stroke="#707070" stroke-width="0.1"/><path d="M851.78,1678.82" transform="translate(-804.309 -1560.362)" fill="rgba(252,253,255,0.29)"/></g></g><text transform="translate(6.5 262.128)" fill="#fff" stroke="#ebebeb" stroke-width="1" font-size="32" font-family="HelveticaNeue, Helvetica Neue"><tspan x="0" y="0">NUNO SANTOS</tspan><tspan x="0" y="38"></tspan></text></g></svg>